<?xml version="1.0" standalone="no"?>
<!DOCTYPE svg PUBLIC "-//W3C//DTD SVG 20010904//EN"
 "http://www.w3.org/TR/2001/REC-SVG-20010904/DTD/svg10.dtd">
<svg version="1.0" xmlns="http://www.w3.org/2000/svg"
 width="640.000000pt" height="640.000000pt" viewBox="0 0 640.000000 640.000000"
 preserveAspectRatio="xMidYMid meet">
<metadata>
Created by potrace 1.11, written by Peter Selinger 2001-2013
</metadata>
<g transform="translate(0.000000,640.000000) scale(0.100000,-0.100000)"
fill="#000000" stroke="none">
<path d="M4356 5010 c-3 -47 -6 -94 -6 -105 -1 -10 -6 -25 -11 -31 -6 -7 -16
-35 -24 -63 -15 -58 -90 -200 -132 -250 -15 -18 -28 -43 -28 -55 0 -15 -6 -20
-19 -19 -11 1 -42 -21 -74 -53 -30 -30 -58 -54 -61 -54 -4 0 -17 -7 -29 -16
-20 -13 -21 -18 -10 -32 12 -15 11 -16 -4 -4 -14 12 -25 9 -75 -17 -32 -17
-83 -43 -113 -56 -86 -40 -133 -71 -192 -128 -58 -57 -115 -127 -102 -127 4 0
0 -6 -9 -12 -25 -19 -109 -178 -103 -195 4 -9 2 -11 -6 -7 -7 5 -9 0 -6 -14 4
-12 3 -20 -2 -17 -13 8 -90 -252 -90 -307 0 -41 -14 -41 -62 -2 -23 20 -54 42
-68 48 -14 6 -29 16 -35 23 -19 23 -144 82 -230 108 -103 32 -185 34 -327 9
-135 -24 -209 -22 -375 10 -41 8 -188 83 -237 120 -34 27 -51 34 -56 26 -5 -8
-10 -9 -14 -2 -3 6 0 13 6 15 10 4 10 8 -2 16 -8 5 -18 7 -23 4 -5 -3 -8 0 -5
8 2 7 -8 26 -24 42 -15 17 -28 35 -28 40 0 6 -2 8 -5 5 -9 -9 59 -259 105
-388 50 -141 147 -343 160 -335 5 3 7 0 5 -7 -3 -8 2 -22 11 -33 14 -18 15
-18 10 -2 -4 11 -2 16 5 12 5 -4 7 -15 4 -24 -8 -28 137 -227 156 -215 5 3 6
-2 3 -10 -4 -11 0 -16 10 -16 9 0 16 -6 16 -14 0 -28 200 -183 221 -171 7 5
10 4 6 -2 -16 -26 194 -112 323 -133 123 -19 357 -4 443 29 15 6 27 7 27 4 0
-4 5 -2 12 5 7 7 20 12 29 12 10 0 21 4 24 10 12 19 -14 46 -69 73 -53 26 -86
36 -56 17 12 -7 10 -9 -7 -8 -11 1 -19 7 -16 14 2 6 -8 15 -24 18 -32 8 -92
35 -243 110 -58 29 -121 53 -140 54 -19 2 -39 7 -44 12 -12 12 -9 12 33 0 19
-5 30 -6 25 -2 -25 22 -83 62 -89 62 -4 0 -18 9 -32 20 -14 11 -30 17 -36 13
-6 -3 -7 -1 -3 5 3 6 0 14 -8 19 -23 13 -196 185 -196 194 0 20 28 6 69 -35
24 -24 55 -50 69 -58 14 -7 40 -25 56 -41 17 -15 37 -25 44 -22 7 3 10 1 7 -5
-3 -5 7 -17 22 -27 15 -10 31 -22 34 -27 4 -5 12 -5 19 -1 9 5 11 4 6 -3 -4
-7 -3 -12 1 -12 5 0 33 -16 62 -35 37 -24 60 -34 75 -30 15 5 17 4 7 -3 -28
-20 249 -136 352 -147 126 -14 167 -8 257 38 58 30 85 49 84 60 -1 9 2 14 7
11 11 -6 49 13 49 26 0 5 -9 12 -21 15 -11 4 -18 9 -16 12 3 2 15 -1 27 -7 20
-11 27 -7 62 27 22 21 54 58 71 83 16 25 39 53 49 63 10 10 18 30 19 45 0 15
3 21 6 14 3 -8 15 6 29 35 14 26 34 63 45 82 11 18 18 40 15 48 -3 8 -2 12 3
9 10 -6 55 92 54 117 -1 9 1 15 5 13 4 -3 18 26 31 62 12 37 27 76 32 87 17
38 38 118 33 127 -4 5 2 15 12 22 11 8 15 21 11 35 -3 11 -1 19 4 15 5 -3 9 5
9 17 0 13 5 39 11 58 7 20 14 42 16 50 5 20 19 2 26 -34 4 -16 4 -24 1 -17
-12 27 -21 9 -19 -38 1 -28 -1 -53 -5 -55 -4 -3 -11 -26 -15 -52 -15 -109 -83
-299 -166 -466 l-49 -98 19 -34 c14 -27 21 -32 31 -22 10 9 12 9 8 -3 -9 -29
-41 -17 -50 18 -5 18 -13 30 -19 26 -6 -3 -8 -13 -5 -21 3 -8 2 -12 -3 -9 -4
3 -14 -7 -22 -22 -7 -15 -35 -62 -63 -105 -36 -58 -46 -81 -37 -90 6 -6 11
-18 10 -26 0 -10 -4 -7 -10 7 -5 13 -13 21 -18 17 -6 -3 -7 -13 -4 -22 4 -10
2 -14 -5 -10 -6 4 -23 -15 -42 -48 -32 -56 -33 -88 -4 -99 35 -13 249 83 412
187 36 24 41 30 32 47 -5 10 -10 22 -10 27 1 4 6 -2 13 -14 12 -22 14 -22 36
-7 18 13 20 18 10 26 -11 7 -11 8 1 6 9 -2 27 6 40 17 47 37 150 162 147 176
-2 8 -2 10 1 5 2 -5 24 22 48 59 24 37 41 72 38 76 -3 5 0 9 6 9 7 0 9 8 5 21
-4 13 -3 19 2 16 14 -9 42 57 36 84 -3 17 -2 20 5 11 10 -15 57 146 69 243 10
75 9 397 -1 485 -13 111 -54 304 -92 427 -19 65 -38 128 -41 141 -3 12 -9 22
-13 22 -4 0 -7 6 -6 13 0 6 -7 36 -18 65 -13 38 -22 52 -33 48 -8 -3 -11 -1
-8 4 3 6 1 10 -4 10 -6 0 -11 8 -11 17 0 15 2 14 15 -3 22 -29 18 -14 -14 57
l-29 63 -6 -84z m21 -47 c-3 -10 -5 -2 -5 17 0 19 2 27 5 18 2 -10 2 -26 0
-35z m-10 -45 c-3 -8 -6 -5 -6 6 -1 11 2 17 5 13 3 -3 4 -12 1 -19z m73 -32
c0 -3 -4 -8 -10 -11 -5 -3 -10 -1 -10 4 0 6 5 11 10 11 6 0 10 -2 10 -4z m-50
-65 c0 -32 -6 -24 -14 19 -4 25 -3 31 4 20 5 -8 10 -26 10 -39z m-20 -11 c0
-5 -5 -10 -11 -10 -5 0 -7 5 -4 10 3 6 8 10 11 10 2 0 4 -4 4 -10z m-55 -125
c1 -25 -2 -45 -7 -45 -4 0 -8 9 -8 19 0 11 -3 27 -7 37 -5 12 -3 15 6 9 10 -6
11 -2 6 16 -4 13 -4 21 0 17 4 -4 9 -28 10 -53z m182 -2 c-3 -10 -5 -4 -5 12
0 17 2 24 5 18 2 -7 2 -21 0 -30z m17 -39 c3 -8 2 -12 -4 -9 -6 3 -10 10 -10
16 0 14 7 11 14 -7z m-287 -74 c-3 -11 0 -20 6 -20 8 0 7 -4 -1 -12 -9 -9 -9
-15 0 -25 8 -10 8 -17 0 -25 -9 -9 -12 -8 -12 6 0 15 -3 16 -15 6 -20 -16 -19
-3 0 17 19 18 9 39 -11 22 -12 -10 -13 -9 -8 5 3 9 12 16 20 16 8 0 14 7 14
15 0 8 3 15 6 15 4 0 4 -9 1 -20z m-67 -121 c0 -5 -4 -9 -10 -9 -5 0 -10 7
-10 16 0 8 5 12 10 9 6 -3 10 -10 10 -16z m-43 -11 c-3 -8 -6 -5 -6 6 -1 11 2
17 5 13 3 -3 4 -12 1 -19z m33 -23 c0 -8 -4 -15 -10 -15 -5 0 -7 7 -4 15 4 8
8 15 10 15 2 0 4 -7 4 -15z m-125 -73 c-7 -8 -35 7 -35 18 0 6 7 6 20 -2 10
-7 17 -14 15 -16z m35 18 c0 -5 -5 -10 -11 -10 -5 0 -7 5 -4 10 3 6 8 10 11
10 2 0 4 -4 4 -10z m527 -72 c-3 -7 -5 -2 -5 12 0 14 2 19 5 13 2 -7 2 -19 0
-25z m-691 -3 c-15 -8 -33 -15 -40 -15 -16 1 36 29 54 30 8 0 2 -7 -14 -15z
m15 -24 c-11 -7 -11 -10 0 -14 10 -4 9 -6 -3 -6 -24 -1 -31 16 -11 28 21 11
34 4 14 -8z m-84 -7 c-3 -3 -12 -4 -19 -1 -8 3 -5 6 6 6 11 1 17 -2 13 -5z
m-127 -64 c0 -5 -4 -10 -10 -10 -5 0 -10 5 -10 10 0 6 5 10 10 10 6 0 10 -4
10 -10z m-30 -14 c0 -2 -7 -7 -16 -10 -8 -3 -12 -2 -9 4 6 10 25 14 25 6z
m937 -73 c-2 -16 -4 -5 -4 22 0 28 2 40 4 28 2 -13 2 -35 0 -50z m-20 25 c-3
-7 -5 -2 -5 12 0 14 2 19 5 13 2 -7 2 -19 0 -25z m-991 -26 c0 -10 -8 -18 -18
-18 -16 0 -16 2 -1 18 9 10 17 18 17 18 1 0 2 -8 2 -18z m1014 -90 c0 -4 -9
-13 -20 -20 -23 -14 -26 -8 -7 13 13 16 27 19 27 7z m-1097 -17 c-3 -9 -8 -14
-10 -11 -3 3 -2 9 2 15 9 16 15 13 8 -4z m667 -5 c0 -5 -2 -10 -4 -10 -3 0 -8
5 -11 10 -3 6 -1 10 4 10 6 0 11 -4 11 -10z m40 6 c0 -3 -4 -8 -10 -11 -5 -3
-10 -1 -10 4 0 6 5 11 10 11 6 0 10 -2 10 -4z m-730 -46 c0 -5 -4 -10 -10 -10
-5 0 -10 5 -10 10 0 6 5 10 10 10 6 0 10 -4 10 -10z m1100 1 c0 -6 -4 -13 -10
-16 -5 -3 -10 1 -10 9 0 9 5 16 10 16 6 0 10 -4 10 -9z m-3 -63 c-3 -7 -5 -2
-5 12 0 14 2 19 5 13 2 -7 2 -19 0 -25z m-1156 -6 c-6 -12 -11 -36 -11 -54 0
-18 -8 -42 -17 -53 l-16 -20 8 20 c15 40 18 68 6 61 -6 -4 -12 -17 -12 -29 -1
-15 -3 -17 -6 -6 -2 9 9 37 24 62 28 44 45 58 24 19z m696 -4 c-3 -7 -5 -2 -5
12 0 14 2 19 5 13 2 -7 2 -19 0 -25z m-30 -10 c-3 -7 -5 -2 -5 12 0 14 2 19 5
13 2 -7 2 -19 0 -25z m120 -15 c-3 -10 -5 -2 -5 17 0 19 2 27 5 18 2 -10 2
-26 0 -35z m390 -5 c-3 -8 -6 -5 -6 6 -1 11 2 17 5 13 3 -3 4 -12 1 -19z
m-370 -10 c-3 -8 -6 -5 -6 6 -1 11 2 17 5 13 3 -3 4 -12 1 -19z m350 -20 c-3
-8 -6 -5 -6 6 -1 11 2 17 5 13 3 -3 4 -12 1 -19z m-500 -20 c-3 -8 -6 -5 -6 6
-1 11 2 17 5 13 3 -3 4 -12 1 -19z m520 0 c-3 -8 -6 -5 -6 6 -1 11 2 17 5 13
3 -3 4 -12 1 -19z m-2780 -25 c-3 -10 -5 -4 -5 12 0 17 2 24 5 18 2 -7 2 -21
0 -30z m1610 15 c-3 -8 -6 -5 -6 6 -1 11 2 17 5 13 3 -3 4 -12 1 -19z m769 -5
c-10 -10 -19 5 -10 18 6 11 8 11 12 0 2 -7 1 -15 -2 -18z m392 -53 c0 -23 -1
-22 -8 5 l-8 30 -1 -29 c0 -16 -4 -27 -7 -23 -4 3 -3 23 1 44 6 32 9 35 15 18
5 -11 8 -31 8 -45z m-2671 -42 c-3 -8 -6 -5 -6 6 -1 11 2 17 5 13 3 -3 4 -12
1 -19z m-37 -18 c0 -5 -2 -10 -4 -10 -3 0 -8 5 -11 10 -3 6 -1 10 4 10 6 0 11
-4 11 -10z m13 -41 c-6 -6 -7 3 -4 23 4 28 6 29 9 9 2 -13 0 -27 -5 -32z
m2147 9 c0 -19 -2 -20 -10 -8 -13 19 -13 30 0 30 6 0 10 -10 10 -22z m-1930 2
c0 -5 -7 -10 -16 -10 -8 0 -12 5 -9 10 3 6 10 10 16 10 5 0 9 -4 9 -10z m605
1 c-11 -10 -143 -26 -134 -16 4 3 35 10 70 14 35 5 66 9 69 10 2 0 0 -3 -5 -8z
m625 5 c0 -11 -19 -15 -25 -6 -3 5 1 10 9 10 9 0 16 -2 16 -4z m1227 -18 c-3
-8 -6 -5 -6 6 -1 11 2 17 5 13 3 -3 4 -12 1 -19z m-2414 -5 c-7 -2 -19 -2 -25
0 -7 3 -2 5 12 5 14 0 19 -2 13 -5z m692 -13 c2 -4 -7 -5 -20 -2 -14 2 -27 8
-30 12 -2 4 7 5 20 2 14 -2 27 -8 30 -12z m-146 6 c-2 -2 -29 -6 -59 -9 -36
-4 -46 -3 -30 3 25 8 97 13 89 6z m608 -33 c-3 -10 -5 -4 -5 12 0 17 2 24 5
18 2 -7 2 -21 0 -30z m839 -26 c-2 -7 -5 -3 -5 8 -1 17 -4 15 -21 -10 -13 -20
-20 -25 -20 -13 0 9 7 23 15 32 8 8 12 23 9 33 -3 10 2 5 11 -10 9 -16 14 -34
11 -40z m-1989 47 c-3 -3 -12 -4 -19 -1 -8 3 -5 6 6 6 11 1 17 -2 13 -5z m306
-1 c-7 -2 -19 -2 -25 0 -7 3 -2 5 12 5 14 0 19 -2 13 -5z m1563 -5 c4 -7 3 -8
-4 -4 -7 4 -12 2 -12 -5 0 -7 -3 -10 -6 -6 -6 5 3 27 11 27 2 0 7 -5 11 -12z
m-2144 -25 c-3 -16 -7 -22 -10 -15 -4 13 4 42 11 42 2 0 2 -12 -1 -27z m1454
-20 c-10 -10 -19 5 -10 18 6 11 8 11 12 0 2 -7 1 -15 -2 -18z m-361 -22 c-6
-5 -25 10 -25 20 0 5 6 4 14 -3 8 -7 12 -15 11 -17z m63 -32 c-3 -20 -5 -19
-9 9 -3 20 -2 29 4 23 5 -5 7 -19 5 -32z m-1140 6 c-3 -3 -9 2 -12 12 -6 14
-5 15 5 6 7 -7 10 -15 7 -18z m2618 -16 c1 -25 -1 -28 -8 -15 -5 10 -7 24 -4
32 8 21 11 17 12 -17z m-12 -58 c-6 -6 -11 1 -18 29 l-7 25 15 -25 c8 -14 12
-27 10 -29z m-1389 19 c3 -5 1 -10 -4 -10 -6 0 -11 5 -11 10 0 6 2 10 4 10 3
0 8 -4 11 -10z m952 -12 c-3 -8 -6 -5 -6 6 -1 11 2 17 5 13 3 -3 4 -12 1 -19z
m-2103 -13 c-4 -8 -1 -15 5 -15 6 0 11 5 11 12 0 6 2 9 5 6 3 -3 2 -16 -3 -29
l-9 -23 -12 22 c-7 12 -9 27 -6 32 9 15 15 12 9 -5z m1986 -24 c0 -6 -4 -13
-10 -16 -5 -3 -10 1 -10 9 0 9 5 16 10 16 6 0 10 -4 10 -9z m-1996 -16 c3 -8
1 -15 -4 -15 -6 0 -10 7 -10 15 0 8 2 15 4 15 2 0 6 -7 10 -15z m1254 -5 c-14
-22 -24 -19 -15 5 4 8 11 15 17 15 6 0 6 -7 -2 -20z m39 -12 c-3 -8 -6 -5 -6
6 -1 11 2 17 5 13 3 -3 4 -12 1 -19z m803 -13 c0 -8 -2 -15 -4 -15 -2 0 -6 7
-10 15 -3 8 -1 15 4 15 6 0 10 -7 10 -15z m-2070 -30 c0 -5 -5 -3 -10 5 -5 8
-10 20 -10 25 0 6 5 3 10 -5 5 -8 10 -19 10 -25z m2427 3 c-3 -7 -5 -2 -5 12
0 14 2 19 5 13 2 -7 2 -19 0 -25z m39 -10 c-13 -18 -16 -19 -16 -5 0 9 5 17
10 17 6 0 10 8 11 18 0 10 3 12 6 5 2 -7 -3 -23 -11 -35z m-439 -30 c-3 -8 -6
-5 -6 6 -1 11 2 17 5 13 3 -3 4 -12 1 -19z m50 0 c-3 -8 -6 -5 -6 6 -1 11 2
17 5 13 3 -3 4 -12 1 -19z m-1990 -34 c1 -24 0 -25 -15 -10 -15 15 -15 18 -2
26 8 5 15 10 15 10 0 0 1 -12 2 -26z m1806 1 c-3 -9 -8 -14 -10 -11 -3 3 -2 9
2 15 9 16 15 13 8 -4z m547 11 c0 -3 -4 -8 -10 -11 -5 -3 -10 -1 -10 4 0 6 5
11 10 11 6 0 10 -2 10 -4z m-1914 -22 c17 -14 17 -15 1 -10 -10 3 -23 6 -28 6
-5 0 -9 5 -9 10 0 14 13 12 36 -6z m-461 -20 c35 -38 31 -44 -5 -9 -16 16 -30
30 -30 32 0 9 14 0 35 -23z m1931 -36 c0 -10 -1 -18 -3 -18 -1 0 -7 8 -12 18
-7 13 -6 19 2 19 7 0 13 -9 13 -19z m-1401 -8 c3 -5 -4 -6 -15 -3 -11 3 -22 9
-25 13 -3 5 4 6 15 3 11 -3 22 -9 25 -13z m45 -10 c0 -5 -2 -10 -4 -10 -3 0
-8 5 -11 10 -3 6 -1 10 4 10 6 0 11 -4 11 -10z m-480 -60 c0 -5 -2 -10 -4 -10
-3 0 -8 5 -11 10 -3 6 -1 10 4 10 6 0 11 -4 11 -10z m567 -5 c0 -8 -4 -15 -9
-15 -4 0 -8 7 -8 15 0 8 4 15 8 15 5 0 9 -7 9 -15z m1073 -6 c0 -6 -4 -7 -10
-4 -5 3 -10 11 -10 16 0 6 5 7 10 4 6 -3 10 -11 10 -16z m123 1 c-3 -11 -9
-20 -14 -20 -5 0 -9 -7 -9 -16 0 -8 5 -12 10 -9 6 3 10 1 10 -4 0 -13 -10 -14
-27 -3 -9 5 -7 16 9 40 23 37 28 40 21 12z m385 2 c-9 -11 -13 -11 -20 0 -6
11 -10 11 -17 0 -7 -11 -9 -11 -14 0 -4 11 4 14 28 14 27 -1 31 -4 23 -14z
m-2163 -12 c3 -5 1 -10 -4 -10 -6 0 -11 5 -11 10 0 6 2 10 4 10 3 0 8 -4 11
-10z m444 -24 c9 -10 8 -15 -2 -19 -8 -3 -13 3 -13 14 0 23 0 23 15 5z m-372
-32 c-3 -3 -12 -4 -19 -1 -8 3 -5 6 6 6 11 1 17 -2 13 -5z m1494 -3 c-9 -6
-11 -16 -7 -27 6 -15 4 -16 -5 -7 -14 14 -5 43 13 43 10 0 9 -3 -1 -9z m496 3
c-3 -3 -12 -4 -19 -1 -8 3 -5 6 6 6 11 1 17 -2 13 -5z m-2000 -46 c-3 -8 -6
-5 -6 6 -1 11 2 17 5 13 3 -3 4 -12 1 -19z m668 12 c3 -5 2 -10 -4 -10 -5 0
-13 5 -16 10 -3 6 -2 10 4 10 5 0 13 -4 16 -10z m-180 -20 c-3 -5 -11 -10 -16
-10 -6 0 -7 5 -4 10 3 6 11 10 16 10 6 0 7 -4 4 -10z m-463 -22 c-7 -7 -12 -8
-12 -2 0 14 12 26 19 19 2 -3 -1 -11 -7 -17z m1843 -8 c3 -5 -1 -10 -9 -10 -8
0 -18 5 -21 10 -3 6 1 10 9 10 8 0 18 -4 21 -10z m-1032 -7 c-7 -2 -21 -2 -30
0 -10 3 -4 5 12 5 17 0 24 -2 18 -5z m982 -2 c3 -5 1 -12 -5 -16 -5 -3 -10 1
-10 9 0 18 6 21 15 7z m95 5 c0 -2 -7 -7 -16 -10 -8 -3 -12 -2 -9 4 6 10 25
14 25 6z m-1147 -13 c-7 -2 -19 -2 -25 0 -7 3 -2 5 12 5 14 0 19 -2 13 -5z
m1094 -19 c-3 -3 -12 -4 -19 -1 -8 3 -5 6 6 6 11 1 17 -2 13 -5z m-1227 -24
c8 -5 11 -10 5 -10 -5 0 -17 5 -25 10 -8 5 -10 10 -5 10 6 0 17 -5 25 -10z
m-433 -35 c1 -16 1 -16 -3 -2 -3 9 -12 17 -21 17 -10 0 -13 -6 -9 -16 6 -14 4
-15 -9 -4 -13 11 -13 15 -3 22 21 13 43 5 45 -17z m1063 11 c0 -3 -4 -8 -10
-11 -5 -3 -10 -1 -10 4 0 6 5 11 10 11 6 0 10 -2 10 -4z m90 0 c0 -2 -7 -7
-16 -10 -8 -3 -12 -2 -9 4 6 10 25 14 25 6z m-620 -21 c33 -19 10 -19 -26 0
-16 8 -22 15 -14 15 8 -1 26 -7 40 -15z m203 8 c-7 -2 -19 -2 -25 0 -7 3 -2 5
12 5 14 0 19 -2 13 -5z m372 -3 c3 -5 -1 -10 -9 -10 -9 0 -16 5 -16 10 0 6 4
10 9 10 6 0 13 -4 16 -10z m415 6 c0 -2 -11 -6 -25 -8 -13 -3 -22 -1 -19 3 5
9 44 13 44 5z m30 0 c0 -3 -4 -8 -10 -11 -5 -3 -10 -1 -10 4 0 6 5 11 10 11 6
0 10 -2 10 -4z m-1609 -23 c13 -16 12 -17 -3 -4 -10 7 -18 15 -18 17 0 8 8 3
21 -13z m844 7 c-3 -5 -1 -10 6 -10 7 0 10 -2 8 -5 -3 -2 -15 -2 -27 2 -23 6
-21 23 4 23 8 0 12 -4 9 -10z m-290 -10 c3 -5 1 -10 -4 -10 -6 0 -11 5 -11 10
0 6 2 10 4 10 3 0 8 -4 11 -10z m-500 -10 c3 -5 1 -10 -4 -10 -6 0 -11 5 -11
10 0 6 2 10 4 10 3 0 8 -4 11 -10z m570 -11 c-3 -12 -7 -24 -10 -27 -3 -3 -3
5 -1 19 6 30 5 29 10 29 3 0 3 -10 1 -21z m766 -2 c-10 -9 -11 -8 -5 6 3 10 9
15 12 12 3 -3 0 -11 -7 -18z m-726 3 c3 -5 2 -10 -4 -10 -5 0 -13 5 -16 10 -3
6 -2 10 4 10 5 0 13 -4 16 -10z m-599 -31 c3 -6 -5 -3 -20 6 -14 10 -26 19
-26 22 0 7 39 -17 46 -28z m1349 5 c-9 -9 -19 -13 -23 -10 -3 4 0 11 8 16 24
15 33 11 15 -6z m-1279 -41 c-7 -7 -26 7 -26 19 0 6 6 6 15 -2 9 -7 13 -15 11
-17z m599 17 c-3 -5 -12 -10 -18 -10 -7 0 -6 4 3 10 19 12 23 12 15 0z m92
-26 c-3 -3 -12 -4 -19 -1 -8 3 -5 6 6 6 11 1 17 -2 13 -5z m-604 -21 c-7 -2
-19 -2 -25 0 -7 3 -2 5 12 5 14 0 19 -2 13 -5z m48 -7 c-10 -12 -8 -15 8 -18
20 -3 19 -4 -3 -14 -20 -9 -23 -9 -19 2 3 8 0 14 -7 14 -10 0 -10 3 0 15 7 8
17 15 22 15 6 0 6 -6 -1 -14z m697 -38 c-2 -6 -10 -14 -16 -16 -7 -2 -10 2 -6
12 7 18 28 22 22 4z m19 -20 c-3 -8 -6 -5 -6 6 -1 11 2 17 5 13 3 -3 4 -12 1
-19z m-690 6 c-3 -3 -12 -4 -19 -1 -8 3 -5 6 6 6 11 1 17 -2 13 -5z m70 -20
c-3 -3 -12 -4 -19 -1 -8 3 -5 6 6 6 11 1 17 -2 13 -5z m61 -1 c-10 -2 -26 -2
-35 0 -10 3 -2 5 17 5 19 0 27 -2 18 -5z m105 0 c-7 -2 -19 -2 -25 0 -7 3 -2
5 12 5 14 0 19 -2 13 -5z m370 -10 c-7 -2 -21 -2 -30 0 -10 3 -4 5 12 5 17 0
24 -2 18 -5z m-463 -13 c0 -13 -11 -13 -30 0 -12 8 -11 10 8 10 12 0 22 -4 22
-10z m88 3 c-10 -2 -26 -2 -35 0 -10 3 -2 5 17 5 19 0 27 -2 18 -5z m120 0
c-16 -2 -40 -2 -55 0 -16 2 -3 4 27 4 30 0 43 -2 28 -4z m95 0 c-7 -2 -21 -2
-30 0 -10 3 -4 5 12 5 17 0 24 -2 18 -5z m52 -3 c13 -6 15 -9 5 -9 -8 0 -22 4
-30 9 -18 12 -2 12 25 0z m-255 -20 c0 -5 -2 -10 -4 -10 -3 0 -8 5 -11 10 -3
6 -1 10 4 10 6 0 11 -4 11 -10z m193 3 c-7 -2 -19 -2 -25 0 -7 3 -2 5 12 5 14
0 19 -2 13 -5z"/>
<path d="M4130 4500 c0 -5 5 -10 10 -10 6 0 10 5 10 10 0 6 -4 10 -10 10 -5 0
-10 -4 -10 -10z"/>
<path d="M3548 2693 c-69 -5 -80 -16 -70 -74 9 -54 8 -382 -2 -462 -13 -108
-45 -238 -78 -317 -24 -58 -89 -163 -107 -175 -6 -3 -8 -11 -5 -17 4 -6 3 -8
-3 -5 -5 4 -19 -2 -29 -11 -15 -14 -51 -21 -165 -30 -318 -26 -564 -125 -629
-253 -39 -75 -109 -69 765 -69 785 0 785 0 785 20 0 54 -81 140 -180 190 -69
35 -193 74 -287 90 -40 7 -73 16 -73 20 0 4 18 38 40 76 52 91 86 184 116 324
22 100 26 147 30 365 3 138 2 268 -3 290 -10 44 -10 44 -105 38z m72 -40 c0
-12 -3 -14 -8 -7 -4 7 -18 14 -32 17 -21 4 -20 4 8 6 24 1 32 -3 32 -16z m17
-5 c-3 -8 -6 -5 -6 6 -1 11 2 17 5 13 3 -3 4 -12 1 -19z m-102 2 c13 -6 15 -9
5 -9 -8 0 -22 4 -30 9 -18 12 -2 12 25 0z m-28 -162 c-3 -8 -6 -5 -6 6 -1 11
2 17 5 13 3 -3 4 -12 1 -19z m120 -110 c-2 -24 -4 -5 -4 42 0 47 2 66 4 43 2
-24 2 -62 0 -85z m-20 5 c-3 -10 -5 -2 -5 17 0 19 2 27 5 18 2 -10 2 -26 0
-35z m40 -45 c-2 -13 -4 -3 -4 22 0 25 2 35 4 23 2 -13 2 -33 0 -45z m-30
-110 c-2 -13 -4 -5 -4 17 -1 22 1 32 4 23 2 -10 2 -28 0 -40z m20 20 c-3 -8
-6 -5 -6 6 -1 11 2 17 5 13 3 -3 4 -12 1 -19z m0 -110 c-3 -8 -6 -5 -6 6 -1
11 2 17 5 13 3 -3 4 -12 1 -19z m-20 -50 c-3 -8 -6 -5 -6 6 -1 11 2 17 5 13 3
-3 4 -12 1 -19z m-130 -20 c-3 -8 -6 -5 -6 6 -1 11 2 17 5 13 3 -3 4 -12 1
-19z m20 -30 c-3 -8 -6 -5 -6 6 -1 11 2 17 5 13 3 -3 4 -12 1 -19z m-30 -10
c-3 -8 -6 -5 -6 6 -1 11 2 17 5 13 3 -3 4 -12 1 -19z m140 -20 c-3 -8 -6 -5
-6 6 -1 11 2 17 5 13 3 -3 4 -12 1 -19z m-80 -140 c-3 -8 -6 -5 -6 6 -1 11 2
17 5 13 3 -3 4 -12 1 -19z m30 -20 c-3 -8 -6 -5 -6 6 -1 11 2 17 5 13 3 -3 4
-12 1 -19z m-139 -74 c3 -16 1 -17 -8 -4 -9 11 -13 12 -17 3 -2 -7 -9 -13 -14
-13 -6 0 -5 9 1 21 13 24 34 20 38 -7z m-72 -74 c0 -11 -6 -20 -13 -20 -11 0
-11 5 -3 20 6 11 12 20 13 20 2 0 3 -9 3 -20z m98 -44 c-3 -9 -10 -13 -15 -10
-5 3 -3 11 4 19 15 16 19 13 11 -9z m-134 -1 c0 -8 -4 -15 -10 -15 -5 0 -7 7
-4 15 4 8 8 15 10 15 2 0 4 -7 4 -15z m37 9 c-3 -3 -12 -4 -19 -1 -8 3 -5 6 6
6 11 1 17 -2 13 -5z"/>
</g>
</svg>
